<?xml version="1.0" encoding="UTF-8" standalone="no"?>
<!DOCTYPE svg PUBLIC "-//W3C//DTD SVG 1.1//EN" "http://www.w3.org/Graphics/SVG/1.1/DTD/svg11.dtd">
<svg width="100%" height="100%" viewBox="0 0 500 500" version="1.1" xmlns="http://www.w3.org/2000/svg" xmlns:xlink="http://www.w3.org/1999/xlink" xml:space="preserve" xmlns:serif="http://www.serif.com/" style="fill-rule:evenodd;clip-rule:evenodd;stroke-linejoin:round;stroke-miterlimit:2;">
    <g transform="matrix(1,0,0,1,-600,-600)">
        <g id="Spark---Craft-Lab" serif:id="Spark - Craft Lab" transform="matrix(1,0,0,1,599.99,600)">
            <rect x="0" y="0" width="500" height="500" style="fill:none;"/>
            <g transform="matrix(-0.764372,-9.36085e-17,9.36085e-17,-0.764372,999.455,501.753)">
                <path d="M980.485,5.029C1169.75,5.029 1378.65,366.846 1284.01,530.757C1189.38,694.669 771.59,694.669 676.956,530.757C582.322,366.846 791.217,5.029 980.485,5.029Z" style="fill:rgb(24,76,239);"/>
                <clipPath id="_clip1">
                    <path d="M980.485,5.029C1169.75,5.029 1378.65,366.846 1284.01,530.757C1189.38,694.669 771.59,694.669 676.956,530.757C582.322,366.846 791.217,5.029 980.485,5.029Z"/>
                </clipPath>
                <g clip-path="url(#_clip1)">
                    <g transform="matrix(-1.30826,1.60216e-16,-1.60216e-16,-1.30826,1307.55,656.426)">
                        <g>
                            <g transform="matrix(0.369388,0,0,0.755814,-22.6627,-4313.6)">
                                <rect x="725.964" y="5707.23" width="13.536" height="661.538" style="fill:rgb(74,124,246);"/>
                            </g>
                            <g transform="matrix(0.369388,0,0,0.755814,-247.663,-4309.42)">
                                <rect x="725.964" y="5707.23" width="13.536" height="661.538" style="fill:rgb(74,124,246);"/>
                            </g>
                            <g transform="matrix(0.369388,0,0,0.755814,157.337,-4317.78)">
                                <rect x="725.964" y="5707.23" width="13.536" height="661.538" style="fill:rgb(74,124,246);"/>
                            </g>
                            <g transform="matrix(0.369388,0,0,0.755814,-67.6627,-4313.6)">
                                <rect x="725.964" y="5707.23" width="13.536" height="661.538" style="fill:rgb(74,124,246);"/>
                            </g>
                            <g transform="matrix(0.369388,0,0,0.755814,22.3373,-4313.6)">
                                <rect x="725.964" y="5707.23" width="13.536" height="661.538" style="fill:rgb(74,124,246);"/>
                            </g>
                            <g transform="matrix(0.369388,0,0,0.755814,-202.663,-4309.42)">
                                <rect x="725.964" y="5707.23" width="13.536" height="661.538" style="fill:rgb(74,124,246);"/>
                            </g>
                            <g transform="matrix(0.369388,0,0,0.755814,202.337,-4317.78)">
                                <rect x="725.964" y="5707.23" width="13.536" height="661.538" style="fill:rgb(74,124,246);"/>
                            </g>
                            <g transform="matrix(0.369388,0,0,0.755814,67.3373,-4313.6)">
                                <rect x="725.964" y="5707.23" width="13.536" height="661.538" style="fill:rgb(74,124,246);"/>
                            </g>
                            <g transform="matrix(0.369388,0,0,0.755814,-157.663,-4309.42)">
                                <rect x="725.964" y="5707.23" width="13.536" height="661.538" style="fill:rgb(74,124,246);"/>
                            </g>
                            <g transform="matrix(0.369388,0,0,0.755814,112.337,-4313.6)">
                                <rect x="725.964" y="5707.23" width="13.536" height="661.538" style="fill:rgb(74,124,246);"/>
                            </g>
                            <g transform="matrix(0.369388,0,0,0.755814,-112.663,-4309.42)">
                                <rect x="725.964" y="5707.23" width="13.536" height="661.538" style="fill:rgb(74,124,246);"/>
                            </g>
                        </g>
                        <g transform="matrix(6.12323e-17,1,-1,6.12323e-17,498,2)">
                            <g transform="matrix(0.369388,0,0,0.755814,-22.6627,-4313.6)">
                                <rect x="725.964" y="5707.23" width="13.536" height="661.538" style="fill:rgb(74,124,246);"/>
                            </g>
                            <g transform="matrix(0.369388,0,0,0.755814,-247.663,-4309.42)">
                                <rect x="725.964" y="5707.23" width="13.536" height="661.538" style="fill:rgb(74,124,246);"/>
                            </g>
                            <g transform="matrix(0.369388,0,0,0.755814,157.337,-4317.78)">
                                <rect x="725.964" y="5707.23" width="13.536" height="661.538" style="fill:rgb(74,124,246);"/>
                            </g>
                            <g transform="matrix(0.369388,0,0,0.755814,-67.6627,-4313.6)">
                                <rect x="725.964" y="5707.23" width="13.536" height="661.538" style="fill:rgb(74,124,246);"/>
                            </g>
                            <g transform="matrix(0.369388,0,0,0.755814,22.3373,-4313.6)">
                                <rect x="725.964" y="5707.23" width="13.536" height="661.538" style="fill:rgb(74,124,246);"/>
                            </g>
                            <g transform="matrix(0.369388,0,0,0.755814,-202.663,-4309.42)">
                                <rect x="725.964" y="5707.23" width="13.536" height="661.538" style="fill:rgb(74,124,246);"/>
                            </g>
                            <g transform="matrix(0.369388,0,0,0.755814,202.337,-4317.78)">
                                <rect x="725.964" y="5707.23" width="13.536" height="661.538" style="fill:rgb(74,124,246);"/>
                            </g>
                            <g transform="matrix(0.369388,0,0,0.755814,67.3373,-4313.6)">
                                <rect x="725.964" y="5707.23" width="13.536" height="661.538" style="fill:rgb(74,124,246);"/>
                            </g>
                            <g transform="matrix(0.369388,0,0,0.755814,-157.663,-4309.42)">
                                <rect x="725.964" y="5707.23" width="13.536" height="661.538" style="fill:rgb(74,124,246);"/>
                            </g>
                            <g transform="matrix(0.369388,0,0,0.755814,112.337,-4313.6)">
                                <rect x="725.964" y="5707.23" width="13.536" height="661.538" style="fill:rgb(74,124,246);"/>
                            </g>
                            <g transform="matrix(0.369388,0,0,0.755814,-112.506,-4315.6)">
                                <rect x="725.964" y="5707.23" width="13.536" height="661.538" style="fill:rgb(74,124,246);"/>
                            </g>
                        </g>
                    </g>
                </g>
            </g>
            <g transform="matrix(11.5748,0,0,11.5748,-59.2564,-76.7959)">
                <path d="M26.625,32.563C28.375,32.563 30.25,31.875 32.063,30.25L34.563,33.125C31.938,35.25 28.938,36.438 25.938,36.438C20,36.438 16.25,32.5 17.125,26.938C18,21.375 23.063,17.438 29,17.438C31.875,17.438 34.563,18.563 36.438,20.625L32.938,23.5C31.938,22.188 30.25,21.313 28.375,21.313C24.813,21.313 22.063,23.625 21.5,26.938C21,30.25 23,32.563 26.625,32.563" style="fill:white;fill-rule:nonzero;"/>
            </g>
        </g>
    </g>
</svg>
